<?xml version="1.0" encoding="UTF-8" standalone="no"?>
<!DOCTYPE svg PUBLIC "-//W3C//DTD SVG 1.1//EN" "http://www.w3.org/Graphics/SVG/1.1/DTD/svg11.dtd">
<svg width="100%" height="100%" viewBox="0 0 2000 2000" version="1.1" xmlns="http://www.w3.org/2000/svg" xmlns:xlink="http://www.w3.org/1999/xlink" xml:space="preserve" xmlns:serif="http://www.serif.com/" style="fill-rule:evenodd;clip-rule:evenodd;stroke-linejoin:round;stroke-miterlimit:2;">
    <g transform="matrix(1,0,0,0.983191,0,0)">
        <path d="M2000,467.864L2000,1566.328C2000,1824.55 1793.881,2034.193 1540,2034.193L460,2034.193C206.119,2034.193 0,1824.55 0,1566.328L0,467.864C0,209.643 206.119,0 460,0L1540,0C1793.881,0 2000,209.643 2000,467.864Z" style="fill:rgb(255,111,97);"/>
    </g>
    <g id="SVGRepo_iconCarrier" transform="matrix(33.333333,0,0,33.333333,648.4375,600.000053)">
        <g transform="matrix(1.910568,0,0,1.954232,-15.245827,-11.450783)">
            <path d="M21.409,9.353C23.53,10.507 23.53,13.493 21.409,14.647L8.597,21.614C6.534,22.736 4,21.276 4,18.967L4,5.033C4,2.724 6.534,1.264 8.597,2.385L21.409,9.353Z" style="fill:white;fill-rule:nonzero;"/>
        </g>
        <g transform="matrix(0.536757,0,0,0.587209,-0.993591,2.758348)">
            <path d="M15.122,0.221C15.012,0.35 14.257,2.194 13.409,4.295C11.531,9.032 10.739,10.212 8.437,11.65C8.179,11.797 6.282,12.608 4.201,13.438C2.12,14.286 0.316,15.078 0.168,15.207C0.021,15.355 -0.034,15.631 0.021,15.889C0.132,16.276 0.666,16.535 3.778,17.77C8.069,19.465 8.732,19.834 10.131,21.143C11.384,22.359 11.991,23.484 13.778,27.963C14.496,29.825 15.177,31.336 15.251,31.336C15.343,31.336 15.527,31.392 15.675,31.447C16.153,31.631 16.503,31.023 17.811,27.631C19.468,23.429 19.8,22.783 20.978,21.493C22.249,20.092 22.93,19.724 27.479,17.88C30.831,16.535 31.365,16.258 31.42,15.889C31.457,15.65 31.383,15.355 31.273,15.207C31.144,15.06 29.542,14.359 27.719,13.622C23.63,12.018 22.452,11.41 21.328,10.323C20.058,9.088 19.652,8.332 17.995,4.203C17.185,2.138 16.43,0.35 16.319,0.221C16.209,0.111 15.932,0 15.711,0C15.49,0 15.214,0.111 15.122,0.221Z" style="fill:rgb(255,111,97);fill-rule:nonzero;"/>
        </g>
        <g transform="matrix(0.083217,0,0,0.091039,0.770169,3.674474)">
            <path d="M15.122,0.221C15.012,0.35 14.257,2.194 13.409,4.295C11.531,9.032 10.739,10.212 8.437,11.65C8.179,11.797 6.282,12.608 4.201,13.438C2.12,14.286 0.316,15.078 0.168,15.207C0.021,15.355 -0.034,15.631 0.021,15.889C0.132,16.276 0.666,16.535 3.778,17.77C8.069,19.465 8.732,19.834 10.131,21.143C11.384,22.359 11.991,23.484 13.778,27.963C14.496,29.825 15.177,31.336 15.251,31.336C15.343,31.336 15.527,31.392 15.675,31.447C16.153,31.631 16.503,31.023 17.811,27.631C19.468,23.429 19.8,22.783 20.978,21.493C22.249,20.092 22.93,19.724 27.479,17.88C30.831,16.535 31.365,16.258 31.42,15.889C31.457,15.65 31.383,15.355 31.273,15.207C31.144,15.06 29.542,14.359 27.719,13.622C23.63,12.018 22.452,11.41 21.328,10.323C20.058,9.088 19.652,8.332 17.995,4.203C17.185,2.138 16.43,0.35 16.319,0.221C16.209,0.111 15.932,0 15.711,0C15.49,0 15.214,0.111 15.122,0.221Z" style="fill:rgb(255,111,97);fill-rule:nonzero;"/>
        </g>
    </g>
</svg>
