<svg width="31" height="29" viewBox="0 0 31 29" fill="none" xmlns="http://www.w3.org/2000/svg">
<path d="M3.19531 19.1378L9.14653 13.5833C9.59864 13.1614 10.2118 12.9243 10.8512 12.9243C11.4906 12.9243 12.1038 13.1614 12.5559 13.5833L17.8414 18.5165M17.8414 18.5165L19.8386 20.3805M17.8414 18.5165L20.464 16.0687C20.9161 15.6468 21.5293 15.4097 22.1687 15.4097C22.8081 15.4097 23.4213 15.6468 23.8734 16.0687L27.1617 19.1378" stroke="#8D8D8D" stroke-width="1.9972" stroke-linecap="round" stroke-linejoin="round"/>
<path d="M15.1802 2.36133C9.54843 2.36133 6.73256 2.36133 4.86499 3.85005C4.59979 4.06144 4.3528 4.29196 4.12631 4.53949C2.53125 6.28255 2.53125 8.9107 2.53125 14.167C2.53125 19.4232 2.53125 22.0514 4.12631 23.7944C4.3528 24.042 4.59979 24.2725 4.86499 24.4839C6.73256 25.9727 9.54843 25.9727 15.1802 25.9727C20.8119 25.9727 23.6278 25.9727 25.4953 24.4839C25.7605 24.2725 26.0075 24.042 26.234 23.7944C27.8291 22.0514 27.8291 19.4232 27.8291 14.167" stroke="#8D8D8D" stroke-width="1.9972" stroke-linecap="round" stroke-linejoin="round"/>
<path d="M27.8281 6.71078H23.1679M23.1679 6.71078H18.5078M23.1679 6.71078V2.36133M23.1679 6.71078V11.0602" stroke="#8D8D8D" stroke-width="1.9972" stroke-linecap="round" stroke-linejoin="round"/>
</svg>
