<svg width="34" height="35" viewBox="0 0 34 35" fill="none" xmlns="http://www.w3.org/2000/svg">
<path d="M19.4389 18.3615L16.4399 15.2743C16.0311 14.8535 15.8268 14.6432 15.6062 14.5306C15.1867 14.3166 14.6942 14.3166 14.2745 14.5306C14.0541 14.6432 13.8497 14.8535 13.4409 15.2743C13.0321 15.6952 12.8277 15.9056 12.7184 16.1325C12.5105 16.5645 12.5105 17.0715 12.7184 17.5033C12.8277 17.7304 13.0321 17.9408 13.4409 18.3615L16.4399 21.4487M19.4389 18.3615L28.4361 27.6233C28.8448 28.0441 29.0492 28.2545 29.1585 28.4815C29.3664 28.9134 29.3664 29.4204 29.1585 29.8523C29.0492 30.0793 28.8448 30.2896 28.4361 30.7105C28.0272 31.1313 27.8228 31.3417 27.6024 31.4542C27.1827 31.6682 26.6902 31.6682 26.2707 31.4542C26.0502 31.3417 25.8458 31.1313 25.4371 30.7105L16.4399 21.4487M19.4389 18.3615L16.4399 21.4487" stroke="#8D8D8D" stroke-width="1.6" stroke-linecap="round" stroke-linejoin="round"/>
<path d="M23.7324 2.87402L24.144 4.01878C24.6835 5.51988 24.9533 6.27043 25.4852 6.81794C26.0171 7.36546 26.7461 7.64318 28.2043 8.19863L29.3164 8.62223L28.2043 9.04583C26.7461 9.60128 26.0171 9.87902 25.4852 10.4265C24.9533 10.974 24.6835 11.7246 24.144 13.2257L23.7324 14.3704L23.3209 13.2257C22.7813 11.7246 22.5115 10.974 21.9796 10.4265C21.4477 9.87901 20.7187 9.60128 19.2605 9.04583L18.1484 8.62223L19.2605 8.19863C20.7187 7.64318 21.4477 7.36546 21.9796 6.81794C22.5115 6.27043 22.7813 5.51988 23.3209 4.01878L23.7324 2.87402Z" stroke="#8D8D8D" stroke-width="1.2" stroke-linejoin="round"/>
<path d="M8.37548 5.7478L8.68411 6.60637C9.08879 7.73218 9.29114 8.29511 9.69005 8.70575C10.0889 9.11637 10.6358 9.32467 11.7294 9.74126L12.5635 10.059L11.7294 10.3767C10.6358 10.7933 10.0889 11.0016 9.69003 11.4122C9.29114 11.8228 9.08879 12.3857 8.68411 13.5115L8.37548 14.3701L8.06686 13.5115C7.66217 12.3857 7.45982 11.8228 7.06092 11.4122C6.66202 11.0016 6.11519 10.7933 5.02154 10.3767L4.1875 10.059L5.02154 9.74126C6.11519 9.32467 6.66202 9.11637 7.06092 8.70573C7.45982 8.29511 7.66217 7.73218 8.06686 6.60637L8.37548 5.7478Z" stroke="#8D8D8D" stroke-width="1.2" stroke-linejoin="round"/>
</svg>
