<svg width="38" height="38" viewBox="0 0 38 38" fill="none" xmlns="http://www.w3.org/2000/svg">
<path d="M18.8213 36.395C19.0406 36.3738 19.2318 36.2914 19.3916 36.1802C19.6785 35.9803 19.8917 35.6656 20.0703 35.3481C20.4403 34.6908 20.9096 33.5531 21.6094 31.7407L22.2188 30.2104C22.7668 28.851 23.1452 27.9736 23.4834 27.3188C23.8076 26.6914 24.0918 26.2724 24.4688 25.8237L24.8818 25.356L24.8838 25.354C25.5297 24.6429 25.9907 24.2277 26.8652 23.7437C27.785 23.2345 29.1498 22.6571 31.6221 21.6567L32.8438 21.1626C33.9398 20.7155 34.6722 20.4007 35.1543 20.1567C35.4712 19.9964 35.7394 19.8378 35.9395 19.6587C36.1687 19.4534 36.3311 19.2007 36.3789 18.8823H36.3779C36.4156 18.635 36.3947 18.3888 36.3477 18.1812C36.3022 17.9803 36.2161 17.7446 36.0674 17.5464L36.0498 17.522L36.0303 17.4995C35.955 17.4135 35.8733 17.3567 35.8398 17.3335C35.7947 17.3021 35.7478 17.2733 35.7051 17.2485C35.619 17.1986 35.5146 17.1437 35.4014 17.0874C35.173 16.974 34.8693 16.8343 34.5166 16.6782C33.8087 16.3649 32.8737 15.9729 31.8828 15.5728L31.875 15.5698C27.4325 13.8298 26.3091 13.2217 25.2266 12.1753C24.584 11.5516 24.1852 11.0771 23.7266 10.2349C23.2474 9.35499 22.707 8.08096 21.8066 5.84131C21.3673 4.72362 20.9425 3.67896 20.6113 2.89404C20.4458 2.50181 20.3018 2.1703 20.1904 1.92529C20.1351 1.8035 20.0843 1.69694 20.042 1.61279C20.021 1.57114 19.999 1.52808 19.9766 1.48877C19.9624 1.46389 19.9197 1.38938 19.8584 1.31787L19.8389 1.29443L19.8164 1.27295C19.6425 1.09929 19.4189 0.989324 19.248 0.925293C19.0643 0.856463 18.833 0.800293 18.5938 0.800293C18.3549 0.800313 18.1222 0.856175 17.9365 0.927246C17.7774 0.988179 17.529 1.10687 17.3486 1.31885C17.2848 1.39337 17.2421 1.47138 17.2285 1.49561C17.206 1.53573 17.183 1.57916 17.1621 1.62158C17.1199 1.7073 17.0701 1.81651 17.0146 1.94092C16.9031 2.19132 16.7583 2.5311 16.5908 2.93213C16.2552 3.73578 15.8196 4.80476 15.3613 5.93994L15.3604 5.94385C14.3427 8.50663 13.6485 10.0288 12.9238 11.1001C12.2297 12.1264 11.4928 12.7597 10.3242 13.4907C10.3196 13.4932 10.3106 13.4981 10.2959 13.5054C10.2723 13.5171 10.2402 13.5325 10.2002 13.5513C10.12 13.589 10.0135 13.6377 9.88281 13.6958C9.62191 13.8117 9.27342 13.9618 8.86133 14.1362C8.03756 14.4848 6.96709 14.9256 5.84668 15.3716L5.84082 15.3745C4.71036 15.8345 3.65264 16.28 2.85547 16.6294C2.45761 16.8038 2.1201 16.9566 1.86914 17.0757C1.74444 17.1349 1.63427 17.1887 1.54688 17.2349C1.49293 17.2633 1.35618 17.334 1.25293 17.4243L1.2334 17.4419L1.21387 17.4604C0.799876 17.8742 0.742664 18.487 0.837891 18.9312L0.84375 18.9575L0.851562 18.9829C1.01666 19.5604 1.5061 19.8672 2.07812 20.1519C2.69541 20.459 3.71801 20.8752 5.38965 21.5376L5.39062 21.5386C7.72049 22.458 9.01654 22.999 9.91797 23.479C10.7845 23.9405 11.2855 24.3449 12.0117 25.0229C13.2191 26.1971 13.8254 27.2612 15.7588 32.1021C16.1501 33.1144 16.5329 34.034 16.8291 34.7046C16.9769 35.0392 17.1063 35.3199 17.207 35.521C17.2561 35.619 17.3061 35.7122 17.3516 35.7876C17.3724 35.8221 17.4063 35.8766 17.4492 35.9302C17.4692 35.9551 17.511 36.0057 17.5723 36.0571C17.5993 36.0798 17.7923 36.2485 18.0957 36.2485C18.0705 36.2485 18.0532 36.2473 18.0469 36.2466C18.04 36.2458 18.0376 36.245 18.041 36.2456C18.0486 36.247 18.0653 36.2511 18.0918 36.2583C18.1434 36.2724 18.2069 36.2918 18.2666 36.314C18.4158 36.3713 18.6054 36.4159 18.8213 36.395Z" stroke="#8D8D8D" stroke-width="1.6"/>
</svg>
