<svg width="27" height="27" viewBox="0 0 27 27" fill="none" xmlns="http://www.w3.org/2000/svg">
<path d="M12.8458 0.187635C12.7519 0.297142 12.1105 1.86153 11.3909 3.64492C9.79525 7.66539 9.12256 8.6666 7.16708 9.88681C6.94807 10.012 5.33676 10.7003 3.569 11.4043C1.80125 12.1239 0.268153 12.7966 0.143002 12.9061C0.0178517 13.0312 -0.0290798 13.2659 0.0178517 13.4849C0.111715 13.8134 0.565386 14.0324 3.20919 15.0806C6.85421 16.5198 7.41739 16.8327 8.60632 17.9434C9.6701 18.9759 10.1863 19.9302 11.7038 23.7316C12.3139 25.3116 12.8927 26.5944 12.9553 26.5944C13.0335 26.5944 13.19 26.6414 13.3151 26.6883C13.7219 26.8447 14.0191 26.3285 15.1298 23.45C16.5377 19.8832 16.8193 19.3357 17.8205 18.2406C18.9 17.0517 19.4788 16.7388 23.3428 15.1744C26.19 14.0324 26.6437 13.7978 26.6906 13.4849C26.7219 13.2815 26.6593 13.0312 26.5654 12.9061C26.4559 12.7809 25.0949 12.1865 23.5462 11.5607C20.0732 10.1997 19.072 9.68344 18.1178 8.76046C17.0383 7.71232 16.6942 7.07092 15.2862 3.5667C14.5979 1.81459 13.9565 0.297142 13.8626 0.187635C13.7688 0.0937729 13.5341 -8.96454e-05 13.3464 -8.96454e-05C13.1587 -8.96454e-05 12.924 0.0937729 12.8458 0.187635Z" fill="white"/>
</svg>
