<svg width="34" height="34" viewBox="0 0 34 34" fill="none" xmlns="http://www.w3.org/2000/svg">
<path d="M24.7586 12.7501C24.7691 12.75 24.7797 12.75 24.7904 12.75C28.3112 12.75 31.1654 15.6042 31.1654 19.125C31.1654 21.5921 29.764 23.7319 27.7138 24.7917M24.7586 12.7501C24.7796 12.5168 24.7904 12.2805 24.7904 12.0417C24.7904 7.73844 21.302 4.25 16.9987 4.25C12.9233 4.25 9.57867 7.37888 9.23596 11.3655M24.7586 12.7501C24.6137 14.3572 23.9809 15.8236 23.0093 17M9.23596 11.3655C5.64267 11.7074 2.83203 14.7338 2.83203 18.4167C2.83203 21.2204 4.46099 23.6436 6.82411 24.7917M9.23596 11.3655C9.45957 11.3442 9.68619 11.3333 9.91536 11.3333C11.5103 11.3333 12.9821 11.8605 14.1661 12.75" stroke="#8D8D8D" stroke-width="2.08163" stroke-linecap="round" stroke-linejoin="round"/>
<path d="M17.0013 19.8333L17.3667 20.8207C17.8458 22.1155 18.0853 22.7629 18.5577 23.2352C19.03 23.7076 19.6774 23.9471 20.9722 24.4262L21.9596 24.7916L20.9722 25.1569C19.6774 25.6361 19.03 25.8756 18.5577 26.3479C18.0853 26.8203 17.8458 27.4677 17.3667 28.7625L17.0013 29.7499L16.6359 28.7625C16.1568 27.4677 15.9173 26.8203 15.445 26.3479C14.9726 25.8756 14.3252 25.6361 13.0304 25.1569L12.043 24.7916L13.0304 24.4262C14.3252 23.9471 14.9726 23.7076 15.445 23.2352C15.9173 22.7629 16.1568 22.1155 16.6359 20.8207L17.0013 19.8333Z" stroke="#8D8D8D" stroke-width="2.08163" stroke-linejoin="round"/>
</svg>
