<svg width="17" height="17" viewBox="0 0 17 17" fill="none" xmlns="http://www.w3.org/2000/svg">
<path d="M6.29688 10.4955C6.29688 8.51649 6.29688 7.52699 6.91168 6.91216C7.5265 6.29736 8.516 6.29736 10.495 6.29736H11.1947C13.1737 6.29736 14.1632 6.29736 14.778 6.91216C15.3928 7.52699 15.3928 8.51649 15.3928 10.4955V11.1952C15.3928 13.1742 15.3928 14.1637 14.778 14.7785C14.1632 15.3933 13.1737 15.3933 11.1947 15.3933H10.495C8.516 15.3933 7.5265 15.3933 6.91168 14.7785C6.29688 14.1637 6.29688 13.1742 6.29688 11.1952V10.4955Z" stroke="#797979" stroke-width="1.04953" stroke-linecap="round" stroke-linejoin="round"/>
<path d="M11.8937 6.29722C11.892 4.22818 11.8607 3.15647 11.2584 2.42266C11.1421 2.28094 11.0122 2.151 10.8705 2.0347C10.0964 1.39941 8.94631 1.39941 6.64609 1.39941C4.34588 1.39941 3.19578 1.39941 2.42168 2.0347C2.27997 2.151 2.15003 2.28094 2.03372 2.42266C1.39844 3.19676 1.39844 4.34686 1.39844 6.64706C1.39844 8.94728 1.39844 10.0974 2.03372 10.8715C2.15002 11.0132 2.27997 11.1431 2.42168 11.2594C3.1555 11.8617 4.22721 11.893 6.29624 11.8946" stroke="#797979" stroke-width="1.04953" stroke-linecap="round" stroke-linejoin="round"/>
</svg>
