<svg width="30" height="30" viewBox="0 0 30 30" fill="none" xmlns="http://www.w3.org/2000/svg">
<path d="M14.4262 0.210823C14.3208 0.333801 13.6005 2.09065 12.7923 4.09346C11.0003 8.60856 10.2449 9.73294 8.04884 11.1033C7.80289 11.2438 5.99333 12.0168 4.00809 12.8074C2.02285 13.6156 0.301144 14.371 0.160596 14.494C0.020048 14.6345 -0.0326574 14.8981 0.020048 15.144C0.125459 15.513 0.634945 15.7589 3.60402 16.936C7.69747 18.5523 8.32994 18.9037 9.66514 20.151C10.8598 21.3106 11.4396 22.3822 13.1437 26.6514C13.8289 28.4258 14.4789 29.8664 14.5492 29.8664C14.637 29.8664 14.8127 29.9191 14.9533 29.9718C15.41 30.1475 15.7438 29.5678 16.9912 26.3352C18.5724 22.3295 18.8886 21.7146 20.013 20.4848C21.2252 19.1496 21.8752 18.7983 26.2147 17.0414C29.4121 15.7589 29.9216 15.4954 29.9743 15.144C30.0094 14.9156 29.9392 14.6345 29.8338 14.494C29.7108 14.3534 28.1823 13.6858 26.443 12.9831C22.5428 11.4546 21.4185 10.8749 20.3468 9.83835C19.1346 8.66126 18.748 7.94095 17.1669 4.00562C16.3939 2.03794 15.6736 0.333801 15.5682 0.210823C15.4627 0.105412 15.1992 0 14.9884 0C14.7776 0 14.514 0.105412 14.4262 0.210823Z" fill="#FF6F61"/>
</svg>
