<svg width="24" height="24" viewBox="0 0 24 24" fill="none" xmlns="http://www.w3.org/2000/svg">
<circle cx="11.8315" cy="11.8315" r="11.8315" fill="#DA9A28"/>
<path d="M12.8833 4.52643C12.8229 4.5667 12.0119 5.82928 10.1569 8.77433L7.51953 12.9647V13.1258C7.51953 13.3041 7.57705 13.4134 7.70935 13.5025C7.78988 13.5543 7.87903 13.5572 9.58452 13.5572C10.8701 13.5572 11.3734 13.5658 11.3734 13.5888C11.3734 13.6061 11.0887 14.7507 10.7407 16.1312C10.3409 17.713 10.108 18.6909 10.108 18.78C10.108 18.9382 10.1712 19.0533 10.2978 19.1395C10.4071 19.2114 10.6573 19.2143 10.7752 19.1453C10.873 19.0849 10.6602 19.4185 13.7864 14.4487L16.1476 10.6984V10.5373C16.1476 10.359 16.0901 10.2497 15.9578 10.1606C15.8773 10.1088 15.7881 10.1059 14.0855 10.1059C12.797 10.1059 12.2937 10.0973 12.2937 10.0743C12.2937 10.057 12.5785 8.91238 12.9265 7.53188C13.3262 5.95007 13.5592 4.97222 13.5592 4.88306C13.5592 4.72488 13.4959 4.60984 13.3694 4.52356C13.2543 4.44878 12.9984 4.44878 12.8833 4.52643Z" fill="white"/>
</svg>
