<svg width="33" height="33" viewBox="0 0 33 33" fill="none" xmlns="http://www.w3.org/2000/svg">
<path d="M4.77764 13.9897C4.25086 12.5317 3.98747 11.8027 4.09979 11.3356C4.22263 10.8247 4.58598 10.4264 5.05041 10.2935C5.47502 10.172 6.13556 10.4656 7.45665 11.0527C8.62515 11.5721 9.2094 11.8318 9.75835 11.8173C10.3628 11.8014 10.9442 11.559 11.4067 11.1302C11.8268 10.7407 12.1085 10.12 12.672 8.87859L13.9139 6.14278C14.9513 3.85749 15.47 2.71484 16.2914 2.71484C17.1128 2.71484 17.6315 3.85749 18.6688 6.14278L19.9108 8.87859C20.4743 10.12 20.7561 10.7407 21.1761 11.1302C21.6386 11.559 22.22 11.8014 22.8244 11.8173C23.3734 11.8318 23.9576 11.5721 25.1262 11.0527C26.4472 10.4656 27.1078 10.172 27.5324 10.2935C27.9968 10.4264 28.3602 10.8247 28.483 11.3356C28.5953 11.8027 28.3319 12.5317 27.8051 13.9895L25.5409 20.2562C24.5722 22.937 24.088 24.2773 23.0743 25.0345C22.0609 25.7917 20.7512 25.7917 18.1318 25.7917H14.4509C11.8316 25.7917 10.5219 25.7917 9.50834 25.0345C8.49485 24.2773 8.01054 22.937 7.04193 20.2562L4.77764 13.9897Z" stroke="white" stroke-width="2.03619"/>
<path d="M16.2891 19.0044H16.3003" stroke="white" stroke-width="2.03619" stroke-linecap="round" stroke-linejoin="round"/>
<path d="M9.50391 29.8643H23.0785" stroke="white" stroke-width="2.03619" stroke-linecap="round"/>
</svg>
