<svg width="19" height="19" viewBox="0 0 19 19" fill="none" xmlns="http://www.w3.org/2000/svg">
<g clip-path="url(#clip0_16_3724)">
<path d="M15.0613 4.24756L14.5827 11.9901C14.4604 13.9683 14.3993 14.9574 13.9035 15.6685C13.6583 16.0201 13.3427 16.3168 12.9766 16.5398C12.2363 16.9908 11.2453 16.9908 9.26331 16.9908C7.27878 16.9908 6.28649 16.9908 5.54564 16.5389C5.17937 16.3156 4.86365 16.0183 4.61857 15.6661C4.1229 14.9539 4.0631 13.9634 3.94351 11.9825L3.47656 4.24756" stroke="#797979" stroke-width="1.15848" stroke-linecap="round"/>
<path d="M2.31641 4.24755H16.2181M12.3996 4.24755L11.8724 3.15992C11.5221 2.43743 11.347 2.07619 11.0449 1.8509C10.978 1.80092 10.907 1.75647 10.8328 1.71797C10.4983 1.54443 10.0968 1.54443 9.29392 1.54443C8.47086 1.54443 8.05937 1.54443 7.7193 1.72525C7.64394 1.76532 7.57202 1.81158 7.50429 1.86353C7.19873 2.09795 7.02804 2.47241 6.68666 3.22134L6.21887 4.24755" stroke="#797979" stroke-width="1.15848" stroke-linecap="round"/>
<path d="M7.33594 12.7433V8.10938" stroke="#797979" stroke-width="1.15848" stroke-linecap="round"/>
<path d="M11.1992 12.7433V8.10938" stroke="#797979" stroke-width="1.15848" stroke-linecap="round"/>
</g>
<defs>
<clipPath id="clip0_16_3724">
<rect width="18.5356" height="18.5356" fill="white"/>
</clipPath>
</defs>
</svg>
