<svg width="17" height="17" viewBox="0 0 17 17" fill="none" xmlns="http://www.w3.org/2000/svg">
<g clip-path="url(#clip0_16_3721)">
<path d="M11.6427 2.17995C12.0462 1.77647 12.2479 1.57474 12.4714 1.47827C12.7934 1.33928 13.1584 1.33928 13.4804 1.47827C13.7038 1.57474 13.9056 1.77647 14.3091 2.17995C14.7125 2.58342 14.9143 2.78515 15.0108 3.00865C15.1498 3.33062 15.1498 3.69567 15.0108 4.01765C14.9143 4.24114 14.7125 4.44287 14.3091 4.84635L10.8591 8.29635C10.0091 9.14635 9.58413 9.57135 9.05182 9.82315C8.5195 10.0749 7.92137 10.134 6.72513 10.252L6.18359 10.3054L6.23703 9.76392C6.35506 8.56766 6.41409 7.96953 6.6659 7.43722C6.91769 6.90491 7.34269 6.47993 8.19268 5.62994L11.6427 2.17995Z" stroke="#797979" stroke-width="1.03055" stroke-linejoin="round"/>
<path d="M4.12313 10.3057H2.57731C1.91329 10.3057 1.375 10.844 1.375 11.508C1.375 12.172 1.91329 12.7103 2.57731 12.7103H9.10411C9.76813 12.7103 10.3064 13.2486 10.3064 13.9126C10.3064 14.5766 9.76813 15.1149 9.10411 15.1149H7.55829" stroke="#797979" stroke-width="1.03055" stroke-linecap="round" stroke-linejoin="round"/>
</g>
<defs>
<clipPath id="clip0_16_3721">
<rect width="16.4888" height="16.4888" fill="white"/>
</clipPath>
</defs>
</svg>
