<svg width="32" height="32" viewBox="0 0 32 32" fill="none" xmlns="http://www.w3.org/2000/svg">
<circle cx="15.719" cy="15.719" r="15.219" fill="white" fill-opacity="0.7" stroke="white"/>
<path d="M12.7814 8.89142C13.0797 8.92457 15.3334 10.9131 15.5654 11.0125L18.2831 9.09021H19.5756C20.5589 9.21175 22.5518 9.4946 22.6579 9.65363C22.7639 9.81267 23.608 11.5317 24.0167 12.3713L23.2213 16.8124L17.5208 22.4467L15.7974 23.6398L11.754 20.5576L8.2077 15.9176L7.51172 12.8685L9.13576 9.45484C10.2516 9.25598 12.5428 8.8649 12.7814 8.89142Z" fill="#D51717"/>
<path d="M10.1198 8.40026C9.29655 8.68744 8.59773 9.14694 8.05207 9.75004C6.11834 11.904 6.44382 15.2736 8.90406 18.5284C9.50716 19.323 11.393 21.228 12.3886 22.0417C12.8768 22.4438 13.815 23.1713 14.4947 23.6595L15.7104 24.5498L16.3422 24.1094C20.0661 21.4673 22.5551 18.9496 23.7038 16.6521C25.3025 13.4739 24.8239 10.5446 22.4498 8.96506C21.5499 8.36196 20.7554 8.16093 19.5109 8.2088C18.5632 8.24709 18.41 8.27581 17.7399 8.60129C17.2229 8.84061 16.7922 9.14694 16.3518 9.57773L15.7104 10.1904L15.1456 9.61602C14.7436 9.21395 14.3319 8.91719 13.7671 8.63958C12.9726 8.24709 12.9343 8.23751 11.8525 8.2088C10.9048 8.18965 10.6559 8.21837 10.1198 8.40026ZM13.1832 9.78833C13.9394 10.1425 14.3319 10.5159 15.0978 11.6072C15.4232 12.0763 15.7009 12.44 15.7296 12.4305C15.7583 12.4209 16.0359 12.0475 16.3518 11.5976C17.0985 10.5254 17.5006 10.1425 18.2568 9.77876C18.8216 9.51072 18.9652 9.482 19.7885 9.482C20.5735 9.482 20.7745 9.52029 21.2244 9.73089C22.7465 10.4489 23.5507 11.971 23.3305 13.7037C22.9954 16.3362 20.7554 19.2177 16.706 22.2523C16.1891 22.6352 15.72 22.932 15.653 22.9033C15.4615 22.8362 13.8916 21.6301 13.03 20.9121C8.44456 17.0446 6.8746 12.9665 9.03808 10.5733C9.75606 9.78833 10.6559 9.42456 11.7951 9.46285C12.4173 9.49157 12.6854 9.54901 13.1832 9.78833Z" fill="#D51717"/>
</svg>
