<svg width="30" height="30" viewBox="0 0 30 30" fill="none" xmlns="http://www.w3.org/2000/svg">
<path d="M3.68359 14.7275V17.8113C3.68359 21.8647 3.68359 23.8915 4.94286 25.1508C6.20211 26.41 8.22886 26.41 12.2823 26.41H17.1959C21.2494 26.41 23.2761 26.41 24.5355 25.1508C25.7947 23.8915 25.7947 21.8647 25.7947 17.8113V14.7275C25.7947 12.6622 25.7947 11.6297 25.3575 10.7358C24.9203 9.84192 24.1053 9.20795 22.4751 7.94004L20.0183 6.0292C17.4823 4.05677 16.2143 3.07056 14.7391 3.07056C13.264 3.07056 11.996 4.05677 9.46002 6.0292L7.00322 7.94004C5.37304 9.20795 4.55795 9.84192 4.12078 10.7358C3.68359 11.6297 3.68359 12.6622 3.68359 14.7275Z" stroke="white" stroke-width="1.84259" stroke-linecap="round" stroke-linejoin="round"/>
<path d="M17.1987 18.4265C17.1987 17.0696 16.0988 15.9697 14.7419 15.9697C13.3851 15.9697 12.2852 17.0696 12.2852 18.4265C12.2852 19.7834 13.3851 20.8833 14.7419 20.8833C16.0988 20.8833 17.1987 19.7834 17.1987 18.4265Z" stroke="white" stroke-width="1.84259" stroke-linejoin="round"/>
</svg>
