<svg width="34" height="34" viewBox="0 0 34 34" fill="none" xmlns="http://www.w3.org/2000/svg">
<path d="M4.25 22.6666L10.582 16.3345C11.0631 15.8536 11.7155 15.5833 12.3958 15.5833C13.0761 15.5833 13.7286 15.8536 14.2096 16.3345L19.8333 21.9583M19.8333 21.9583L21.9583 24.0833M19.8333 21.9583L22.6237 19.1678C23.1047 18.6869 23.7572 18.4166 24.4375 18.4166C25.1178 18.4166 25.7703 18.6869 26.2513 19.1678L29.75 22.6666" stroke="#8D8D8D" stroke-width="2.08163" stroke-linecap="round" stroke-linejoin="round"/>
<path d="M21.9583 11.3334C22.3495 11.3334 22.6667 11.0163 22.6667 10.6251C22.6667 10.2339 22.3495 9.91675 21.9583 9.91675M21.9583 11.3334C21.5672 11.3334 21.25 11.0163 21.25 10.6251C21.25 10.2339 21.5672 9.91675 21.9583 9.91675M21.9583 11.3334V9.91675" stroke="#8D8D8D" stroke-width="2.08163" stroke-linecap="round" stroke-linejoin="round"/>
<path d="M5.24009 27.9753C3.54297 25.9883 3.54297 22.9922 3.54297 17.0001C3.54297 11.008 3.54297 8.0119 5.24009 6.02482C5.48108 5.74265 5.74387 5.47986 6.02605 5.23887C8.01312 3.54175 11.0092 3.54175 17.0013 3.54175C22.9934 3.54175 25.9895 3.54175 27.9765 5.23887C28.2587 5.47986 28.5215 5.74265 28.7625 6.02482C30.4596 8.0119 30.4596 11.008 30.4596 17.0001C30.4596 22.9922 30.4596 25.9883 28.7625 27.9753C28.5215 28.2575 28.2587 28.5203 27.9765 28.7612C25.9895 30.4584 22.9934 30.4584 17.0013 30.4584C11.0092 30.4584 8.01312 30.4584 6.02605 28.7612C5.74387 28.5203 5.48108 28.2575 5.24009 27.9753Z" stroke="#8D8D8D" stroke-width="2.08163" stroke-linecap="round" stroke-linejoin="round"/>
</svg>
