<svg width="19" height="19" viewBox="0 0 19 19" fill="none" xmlns="http://www.w3.org/2000/svg">
<path d="M8.45693 2.28613C5.67618 2.29114 4.22002 2.35942 3.28943 3.29017C2.28516 4.2946 2.28516 5.91121 2.28516 9.14439C2.28516 12.3776 2.28516 13.9943 3.28943 14.9987C4.29369 16.0031 5.91005 16.0031 9.14279 16.0031C12.3754 16.0031 13.9918 16.0031 14.9961 14.9987C15.9266 14.0679 15.9949 12.6115 15.9999 9.83033" stroke="#797979" stroke-width="1.1431" stroke-linecap="round" stroke-linejoin="round"/>
<path d="M15.6631 2.66422L8.41797 9.95145M15.6631 2.66422C15.2867 2.2873 12.7508 2.32243 12.2147 2.33006M15.6631 2.66422C16.0396 3.04116 16.0045 5.58035 15.9969 6.11715" stroke="#797979" stroke-width="1.1431" stroke-linecap="round" stroke-linejoin="round"/>
</svg>
