<svg width="40" height="40" viewBox="0 0 40 40" fill="none" xmlns="http://www.w3.org/2000/svg">
<circle cx="19.9219" cy="19.9219" r="19.9219" fill="#FF6F61"/>
<path d="M21.7766 13.0826C22.5307 12.3285 22.9077 11.9515 23.3253 11.7712C23.9271 11.5115 24.6093 11.5115 25.2111 11.7712C25.6287 11.9515 26.0058 12.3285 26.7597 13.0826C27.5138 13.8366 27.8909 14.2136 28.0712 14.6313C28.3309 15.2331 28.3309 15.9153 28.0712 16.517C27.8909 16.9347 27.5138 17.3117 26.7597 18.0658L20.3122 24.5134C18.7237 26.102 17.9294 26.8962 16.9346 27.3668C15.9398 27.8374 14.8219 27.9477 12.5863 28.1683L11.5742 28.2682L11.6741 27.2561C11.8947 25.0205 12.005 23.9026 12.4756 22.9078C12.9462 21.913 13.7404 21.1187 15.329 19.5302L21.7766 13.0826Z" stroke="white" stroke-width="1.92597" stroke-linejoin="round"/>
</svg>
