<svg width="34" height="34" viewBox="0 0 34 34" fill="none" xmlns="http://www.w3.org/2000/svg">
<path d="M30.4596 17.7082V15.654C30.4596 9.94412 30.4596 7.08918 28.6858 5.31534C26.912 3.5415 24.057 3.5415 18.3471 3.5415H15.6555C9.94558 3.5415 7.09064 3.5415 5.31681 5.31534C3.54297 7.08918 3.54297 9.94412 3.54297 15.654V18.3457C3.54297 24.0555 3.54297 26.9106 5.31681 28.6844C7.09064 30.4582 9.94558 30.4582 15.6555 30.4582H17.7096" stroke="#8D8D8D" stroke-width="2.08163" stroke-linecap="round"/>
<path d="M21.8909 22.4671C23.3157 21.6256 24.5591 21.9647 25.306 22.5049C25.6122 22.7263 25.7654 22.8371 25.8555 22.8371C25.9456 22.8371 26.0987 22.7263 26.405 22.5049C27.1519 21.9647 28.3953 21.6256 29.82 22.4671C31.6896 23.5715 32.1128 27.2149 27.8001 30.2886C26.9788 30.8741 26.5679 31.1668 25.8555 31.1668C25.143 31.1668 24.7322 30.8741 23.9108 30.2886C19.5982 27.2149 20.0214 23.5715 21.8909 22.4671Z" stroke="#8D8D8D" stroke-width="2.08163" stroke-linecap="round"/>
<path d="M21.1959 16.6912C21.0171 17.3254 20.1719 17.7735 18.4816 18.6698C16.8475 19.5363 16.0305 19.9695 15.372 19.7954C15.0999 19.7234 14.8518 19.5867 14.6518 19.3983C14.168 18.9427 14.168 18.059 14.168 16.2917C14.168 14.5244 14.168 13.6407 14.6518 13.1851C14.8518 12.9967 15.0999 12.86 15.372 12.788C16.0305 12.6138 16.8475 13.0471 18.4816 13.9135C20.1719 14.8098 21.0171 15.2579 21.1959 15.8922C21.2697 16.154 21.2697 16.4294 21.1959 16.6912Z" stroke="#8D8D8D" stroke-width="2.08163" stroke-linejoin="round"/>
</svg>
