<svg width="140" height="121" viewBox="0 0 140 121" fill="none" xmlns="http://www.w3.org/2000/svg">
<path d="M112.21 0.437237C112.086 0.72835 111.711 1.97598 111.337 3.18202C110.173 6.84174 108.135 8.67159 104.059 9.71128C102.687 10.044 102.146 10.4183 102.063 11.0421C101.938 11.7491 102.354 11.9986 104.475 12.5808C108.343 13.6621 110.921 16.3653 111.711 20.1914C112.044 21.6054 112.917 22.6035 113.541 22.2292C113.749 22.1044 114.248 20.8568 114.623 19.4428C115.662 15.7831 117.534 13.9116 121.193 12.7888C123.647 12.0402 124.063 11.7907 123.938 11.0421C123.855 10.3767 123.314 10.044 121.859 9.6697C119.447 9.08747 117.159 7.67349 116.203 6.25951C115.829 5.67728 115.122 4.09695 114.664 2.68297C114.123 1.01946 113.583 0.104534 113.084 0.0213585C112.709 -0.0618153 112.294 0.104534 112.21 0.437237Z" fill="#D5D5D5"/>
<path d="M124.973 20.5222C124.072 22.3248 122.179 24.2175 120.376 25.1188C116.321 27.0115 116.23 29.9858 120.286 31.8785C121.909 32.5995 123.982 34.6725 124.973 36.5652C127.226 40.8012 129.209 40.8914 131.642 36.8356C132.634 35.033 134.887 32.7798 136.69 31.7883C140.745 29.3549 140.745 27.1918 136.69 25.2991C134.797 24.3978 132.904 22.5051 132.003 20.6124C129.93 16.2862 126.956 16.2862 124.973 20.5222Z" fill="#D5D5D5"/>
<path d="M47.2451 23.9722C54.5314 23.757 97.634 24.0637 103.045 24.4019C109.028 24.745 114.158 25.1782 117.852 25.6382C114.234 27.8191 114.497 30.8811 118.802 32.8901C120.677 33.7234 123.073 36.1197 124.219 38.3071C126.823 43.2023 129.114 43.3067 131.927 38.6196C132.507 37.5643 133.462 36.3754 134.533 35.3101C135.18 36.5138 135.63 37.8423 136.063 39.6206C139.66 54.1625 139.66 90.5623 136.063 105.104C135.141 108.885 134.157 110.638 131.329 113.466C127.332 117.494 124.196 118.601 114.021 119.523C102.984 120.568 95.113 120.784 69.3809 120.784C43.6488 120.784 35.778 120.568 24.7412 119.523C14.5652 118.601 11.4292 117.494 7.43262 113.466C4.6042 110.638 3.61957 108.885 2.69727 105.104C-0.899648 90.5623 -0.899612 54.1626 2.69727 39.6206C3.61957 35.8391 4.6042 34.0867 7.43262 31.2583C10.4454 28.2455 12.5355 27.1074 16.9316 26.2466C21.8506 25.232 33.3798 24.4026 47.2451 23.9722ZM56.0381 52.3784C55.9459 52.3784 55.8535 61.3558 55.8535 72.3618C55.8535 83.3373 55.9459 92.3452 56.0381 92.3452C56.3664 92.333 90.5938 72.5462 90.5938 72.3618C90.5754 72.2592 82.8353 67.7437 73.4082 62.2778C63.9472 56.8408 56.1434 52.386 56.0381 52.3784Z" fill="#D5D5D5"/>
</svg>
