<svg width="29" height="29" viewBox="0 0 29 29" fill="none" xmlns="http://www.w3.org/2000/svg">
<path d="M14.3115 3.75814C21.3761 1.34976 24.9084 0.145575 26.8083 2.04547C28.7082 3.94536 27.504 7.47768 25.0957 14.5423L23.4556 19.3532C21.6061 24.7788 20.6812 27.4915 19.1567 27.716C18.7469 27.7764 18.3227 27.7401 17.9171 27.6099C16.409 27.1257 15.6117 24.2654 14.0172 18.545C13.6635 17.2761 13.4867 16.6416 13.0839 16.157C12.967 16.0164 12.8374 15.8868 12.6968 15.7699C12.2122 15.3671 11.5777 15.1903 10.3089 14.8366C4.58836 13.2421 1.7281 12.4448 1.24388 10.9366C1.11369 10.5311 1.07736 10.1069 1.13772 9.69703C1.36223 8.17258 4.07502 7.24778 9.50059 5.39818L14.3115 3.75814Z" stroke="white" stroke-width="2.21959"/>
</svg>
